:SAMPLES-PER-SECOND 30
:FULLY-SPECIFIED
:DEGREES
96
root  -2.25014 40.9815 -0.38991 177.116 -78.2938 -175.592
RightUpLeg  1.11619 -0.288398 0.497823
RightLeg  -2.8186 -9.48104 1.7122
RightFoot  0.832048 -0.257013 2.42885
RightToes  -3.13006e-008 1.75238e-005 3.56266e-009
Spine  -9.9662 1.77086 -2.05462
Spine1  16.1228 1.33538 2.36518
HEad  -26.5544 -32.1969 6.55344
LeftShoulder1  2.68968 -5.82051 -22.5531
LeftArm  4.62478 21.6858 -52.5886
LeftForeArm  163.987 -70.3465 -152.093
LeftHand  -0.67746 -5.76535 7.3659
RightShoulder  1.69974 4.01394 15.9133
RightArm  -6.80141 34.2363 31.5063
RightForeArm  72.6556 79.4356 74.9928
RightHand  -0.822082 8.81716 -7.07981
LeftUpLeg  3.41891 2.60773 4.753
LeftLeg  -3.41027 22.6682 -1.54163
LeftFoot  0.393601 0.60115 -5.871
LeftToes  4.76866e-008 1.46233e-008 1.30548e-009
97
root  -2.27509 40.978 -0.359515 177.095 -77.9001 -175.826
RightUpLeg  1.35546 -0.342569 0.438687
RightLeg  -2.74095 -9.09121 1.64298
RightFoot  0.723677 -0.26707 2.58783
RightToes  -3.13006e-008 1.75238e-005 3.56266e-009
Spine  -10.0793 1.60291 -1.7018
Spine1  16.24 1.34424 1.65004
HEad  -26.2019 -32.0128 6.54629
LeftShoulder1  2.60912 -5.67521 -22.1076
LeftArm  4.31753 21.7445 -52.927
LeftForeArm  163.665 -70.4172 -151.944
LeftHand  -0.6916 -5.58459 7.62488
RightShoulder  1.78698 4.25465 16.3806
RightArm  -6.98498 34.087 31.4854
RightForeArm  72.9795 79.4509 75.7196
RightHand  -0.790123 8.16946 -7.11656
LeftUpLeg  3.84418 2.6218 4.67503
LeftLeg  -3.53042 23.0154 -1.61758
LeftFoot  0.335732 0.591373 -5.8016
LeftToes  4.76866e-008 1.46233e-008 1.30548e-009
98
root  -2.29838 40.9721 -0.32459 177.189 -77.4453 -176.073
RightUpLeg  1.50619 -0.355237 0.396355
RightLeg  -2.7339 -8.74363 1.57913
RightFoot  0.663542 -0.254577 2.39183
RightToes  -3.13006e-008 1.75238e-005 3.56266e-009
Spine  -9.95922 1.57819 -1.93492
Spine1  15.8589 1.25044 1.93065
HEad  -25.3335 -31.1884 6.30856
LeftShoulder1  2.69559 -5.82882 -22.5955
LeftArm  4.19164 21.6857 -52.5117
LeftForeArm  163.632 -70.3787 -151.996
LeftHand  -0.659582 -5.57304 7.29493
RightShoulder  1.7497 4.19309 16.0507
RightArm  -7.16972 33.4156 31.8756
RightForeArm  74.1448 79.5013 76.9651
RightHand  -0.826209 8.33833 -7.33607
LeftUpLeg  4.15035 2.58042 4.54332
LeftLeg  -3.65014 23.4355 -1.64586
LeftFoot  0.351439 0.566548 -5.55233
LeftToes  4.76866e-008 1.46233e-008 1.30548e-009
99
root  -2.32684 40.9703 -0.2858 176.774 -77.1512 -175.809
RightUpLeg  1.67509 -0.357495 0.405348
RightLeg  -2.70873 -8.44312 1.56394
RightFoot  0.599637 -0.267035 2.57898
RightToes  -3.13006e-008 1.75238e-005 3.56266e-009
Spine  -10.0087 1.41309 -1.94945
Spine1  15.752 1.10886 1.8101
HEad  -24.7099 -30.5715 6.36687
LeftShoulder1  2.61294 -5.65533 -22.2197
LeftArm  4.3009 21.1475 -52.5359
LeftForeArm  163.575 -70.4885 -151.827
LeftHand  -0.642484 -5.68615 7.04891
RightShoulder  1.81165 4.278 16.6519
RightArm  -7.99968 32.028 31.0425
RightForeArm  76.1531 79.5823 78.7604
RightHand  -0.872679 8.85196 -7.47938
LeftUpLeg  4.41776 2.57139 4.52457
LeftLeg  -3.68432 23.7233 -1.60489
LeftFoot  0.255937 0.565428 -5.58229
LeftToes  4.76866e-008 1.46233e-008 1.30548e-009
100
root  -2.35114 40.9694 -0.248741 176.411 -76.8255 -175.616
RightUpLeg  1.84017 -0.346179 0.422455
RightLeg  -2.65324 -8.1736 1.53365
RightFoot  0.57057 -0.268325 2.59003
RightToes  -3.13006e-008 1.75238e-005 3.56266e-009
Spine  -10.1407 1.398 -2.15256
Spine1  15.8812 1.03234 2.03079
HEad  -24.9288 -30.7587 6.30683
LeftShoulder1  2.64738 -5.74147 -22.3324
LeftArm  4.384 20.267 -52.3334
LeftForeArm  163.352 -70.7361 -151.425
LeftHand  -0.659958 -5.9625 7.06917
RightShoulder  1.85454 4.45659 16.6646
RightArm  -10.4103 30.1587 30.7498
RightForeArm  77.3471 79.6144 80.2305
RightHand  -0.763263 9.28193 -6.40863
LeftUpLeg  4.64877 2.61542 4.52529
LeftLeg  -3.56463 24.0431 -1.55452
LeftFoot  0.0872655 0.576468 -5.76436
LeftToes  4.76866e-008 1.46233e-008 1.30548e-009
